<?xml version="1.0" encoding="UTF-8"?>
<svg id="Layer_1" xmlns="http://www.w3.org/2000/svg" version="1.1" viewBox="0 0 1080 1080"><metadata><?xpacket begin="" id="W5M0MpCehiHzreSzNTczkc9d"?><x:xmpmeta xmlns:x="adobe:ns:meta/" x:xmptk="XMP Core 6.0.0"><rdf:RDF xmlns:rdf="http://www.w3.org/1999/02/22-rdf-syntax-ns#"><rdf:Description rdf:about="" xmlns:xmp="http://ns.adobe.com/xap/1.0/" xmlns:xmpMM="http://ns.adobe.com/xap/1.0/mm/" xmlns:dc="http://purl.org/dc/elements/1.1/" xmlns:dcterms="http://purl.org/dc/terms/" xmpMM:DocumentID="xmp.did:cb9f5498-bb58-4572-8043-8c369e6bfb9b" xmpMM:InstanceID="xmp.iid:cb9f5498-bb58-4572-8043-8c369e6bfb9b" dcterms:provenance="https://cai-manifests.adobe.com/manifests/urn-c2pa-c1766a94-f4ef-4c7a-9920-b4f63ee8ea43-adobe"> </rdf:Description></rdf:RDF></x:xmpmeta>
<?xpacket end="w"?></metadata>
  <!-- Generator: Adobe Illustrator 30.8.1, SVG Export Plug-In . SVG Version: 2.1.4 Build 1)  -->
  <defs>
    <style>
      .st0 {
        fill: #fbf2de;
      }

      .st1 {
        fill: #a20108;
      }
    </style>
  </defs>
  <g id="Generative_Object">
    <g>
      <path class="st1" d="M852.13,891.09c-101.82,92.29-238.83,137.23-375.6,117.58-62.06-8.92-121.52-29.62-175.47-61.49-37.12-21.93-70.66-49.04-100.35-80.3-75.52-79.54-124.67-182.97-131.48-293.1-5.03-81.39,11.21-161.82,46.82-234.91,37.52-77.03,93.97-143.18,164.55-191.71,77.24-53.11,168.52-80.94,262.32-80.35,26.28.16,51.54,2.05,77.51,6.29,60.73,9.92,118.65,32.06,170.13,65.84,55.6,36.48,102.83,83.75,139.48,139.21,23.52,35.59,42.92,73.58,56.66,114.09,18.8,55.4,27.61,113.91,24.26,172.48-4.68,81.83-31.38,160.36-75.5,229.07-23.24,36.2-51.5,68.43-83.35,97.3Z"/>
      <g>
        <g>
          <circle class="st0" cx="510.45" cy="104.83" r="7.13"/>
          <circle class="st0" cx="633.23" cy="113.35" r="7.13"/>
          <circle class="st0" cx="360.64" cy="143.93" r="7.09"/>
          <circle class="st0" cx="602.29" cy="108.03" r="7.08"/>
          <circle class="st0" cx="448.9" cy="113.39" r="7.11"/>
          <circle class="st0" cx="629.29" cy="964.52" r="7.12"/>
          <circle class="st0" cx="599.69" cy="969.59" r="7.08"/>
          <circle class="st0" cx="715.44" cy="936.28" r="7.07"/>
          <circle class="st0" cx="570.19" cy="972.12" r="7.11"/>
          <circle class="st0" cx="658.48" cy="957.12" r="7.08"/>
          <circle class="st0" cx="479.13" cy="969.73" r="7.06"/>
          <circle class="st0" cx="418.63" cy="121.62" r="7.07"/>
          <circle class="st0" cx="742.28" cy="923.23" r="7.07"/>
          <circle class="st0" cx="571.98" cy="104.82" r="7.07"/>
          <circle class="st0" cx="449.27" cy="964.79" r="7.09"/>
          <circle class="st0" cx="420.19" cy="957.4" r="7.11"/>
          <circle class="st0" cx="389.09" cy="132.05" r="7.03"/>
          <circle class="st0" cx="768.51" cy="907.88" r="7.03"/>
          <circle class="st0" cx="541.08" cy="104.19" r="7.05"/>
          <circle class="st0" cx="509.54" cy="972.2" r="7.04"/>
          <circle class="st0" cx="722.45" cy="144.61" r="7.01"/>
          <circle class="st0" cx="259.95" cy="871.66" r="7.01"/>
          <circle class="st0" cx="479.2" cy="108.09" r="7.03"/>
          <circle class="st0" cx="663.26" cy="121.46" r="7.06"/>
          <circle class="st0" cx="362.94" cy="936.63" r="7.03"/>
          <circle class="st0" cx="391.37" cy="947.98" r="6.99"/>
          <circle class="st0" cx="693.43" cy="132.12" r="7.03"/>
          <circle class="st0" cx="112.16" cy="615.1" r="7"/>
          <circle class="st0" cx="952.1" cy="409.7" r="7"/>
          <circle class="st0" cx="257.99" cy="210.57" r="6.97"/>
          <circle class="st0" cx="335.44" cy="923.17" r="7.03"/>
          <circle class="st0" cx="966.77" cy="467.07" r="6.98"/>
          <circle class="st0" cx="281.42" cy="191.64" r="7.04"/>
          <circle class="st0" cx="306.35" cy="174.33" r="7"/>
          <circle class="st0" cx="333.14" cy="158.26" r="7.01"/>
          <circle class="st0" cx="139.04" cy="379.81" r="6.98"/>
          <circle class="st0" cx="119.77" cy="436.74" r="6.99"/>
          <circle class="st0" cx="687.47" cy="947.66" r="7.02"/>
          <circle class="st0" cx="108.59" cy="495.91" r="6.98"/>
          <circle class="st0" cx="283.67" cy="890.61" r="6.99"/>
          <circle class="st0" cx="793.41" cy="890.71" r="6.98"/>
          <circle class="st0" cx="540.49" cy="972.79" r="7"/>
          <circle class="st0" cx="750.78" cy="159.04" r="6.97"/>
          <circle class="st0" cx="777.34" cy="175.7" r="7"/>
          <circle class="st0" cx="802.2" cy="193.6" r="6.98"/>
          <circle class="st0" cx="235.39" cy="231.42" r="6.98"/>
          <circle class="st0" cx="867.04" cy="255.39" r="6.97"/>
          <circle class="st0" cx="128.46" cy="407.97" r="6.99"/>
          <circle class="st0" cx="150.93" cy="352.56" r="6.98"/>
          <circle class="st0" cx="972.93" cy="555.92" r="6.97"/>
          <circle class="st0" cx="966.82" cy="615.65" r="6.95"/>
          <circle class="st0" cx="817.27" cy="871.88" r="6.95"/>
          <circle class="st0" cx="150.02" cy="729.07" r="6.97"/>
          <circle class="st0" cx="113.25" cy="466.26" r="6.95"/>
          <circle class="st0" cx="107.84" cy="585.24" r="6.98"/>
          <circle class="st0" cx="215.1" cy="253.62" r="6.96"/>
          <circle class="st0" cx="308.86" cy="907.81" r="6.97"/>
          <circle class="st0" cx="237.58" cy="850.68" r="6.97"/>
          <circle class="st0" cx="137.82" cy="701.39" r="6.95"/>
          <circle class="st0" cx="840.02" cy="851.06" r="6.95"/>
          <circle class="st0" cx="164.09" cy="755.4" r="6.95"/>
          <circle class="st0" cx="902.03" cy="302.67" r="6.93"/>
          <circle class="st0" cx="861.39" cy="829.25" r="6.97"/>
          <circle class="st0" cx="127.35" cy="673.44" r="6.92"/>
          <circle class="st0" cx="942.42" cy="381.42" r="6.95"/>
          <circle class="st0" cx="916.65" cy="327.87" r="6.95"/>
          <circle class="st0" cx="970.89" cy="585.93" r="6.94"/>
          <circle class="st0" cx="216.62" cy="828.97" r="6.96"/>
          <circle class="st0" cx="930.44" cy="354.13" r="6.92"/>
          <circle class="st0" cx="164.78" cy="326.27" r="6.94"/>
          <circle class="st0" cx="196.98" cy="805.44" r="6.93"/>
          <circle class="st0" cx="847.31" cy="233.31" r="6.94"/>
          <circle class="st0" cx="825.35" cy="212.71" r="6.92"/>
          <circle class="st0" cx="941.19" cy="701.97" r="6.95"/>
          <circle class="st0" cx="885.85" cy="278.86" r="6.89"/>
          <circle class="st0" cx="106.43" cy="525.76" r="6.91"/>
          <circle class="st0" cx="179.65" cy="780.95" r="6.89"/>
          <circle class="st0" cx="951.71" cy="673.93" r="6.9"/>
          <circle class="st0" cx="118.87" cy="644.43" r="6.95"/>
          <circle class="st0" cx="960.22" cy="644.95" r="6.92"/>
          <circle class="st0" cx="196.05" cy="276.76" r="6.88"/>
          <circle class="st0" cx="898.88" cy="781.57" r="6.88"/>
          <circle class="st0" cx="179.38" cy="301.16" r="6.91"/>
          <circle class="st0" cx="106.22" cy="555.27" r="6.92"/>
          <circle class="st0" cx="914.73" cy="756.08" r="6.92"/>
          <circle class="st0" cx="970.73" cy="496.4" r="6.92"/>
          <circle class="st0" cx="928.8" cy="729.68" r="6.9"/>
          <circle class="st0" cx="960.56" cy="438.08" r="6.91"/>
          <circle class="st0" cx="972.8" cy="526.22" r="6.93"/>
          <circle class="st0" cx="881.05" cy="805.93" r="6.83"/>
          <path class="st0" d="M539.97,132.84c-223.95,0-405.5,181.54-405.5,405.49s181.55,405.5,405.5,405.5,405.49-181.55,405.49-405.5-181.54-405.49-405.49-405.49ZM539.95,929.34c-215.92,0-390.95-175.04-390.95-390.96s175.03-390.95,390.95-390.95,390.95,175.03,390.95,390.95-175.03,390.96-390.95,390.96Z"/>
        </g>
        <g>
          <g>
            <path class="st0" d="M520.91,896.33c-15.79.27-31.38-1.29-47.4-3.58v-172.82s-62.73-.05-62.73-.05l-.02,155.89c-15.55-4.73-30.48-10.84-44.95-18.62l-.27-155.14v-119.64s45.26,0,45.26,0l-.03,93.88,62.64.04.1-93.93,47.43.09-.02,313.88Z"/>
            <path class="st0" d="M551.08,847.68l-.07-221.73,46.67.02-.04,208.59c23.02-3.35,45.01-9.31,66.82-18.07,1.02-72.26,2.04-144.53,3.06-216.79h43.36v249.12c-46.96,28.89-104.61,44.66-159.69,47.25l-.11-48.4Z"/>
            <path class="st0" d="M804.43,700.21l-48.86-.36c-11.55-.08-19.55-10.68-20.24-21.94v-95.56s46.69.07,46.69.07l.02,73.91,42.25-.89c7.5-24.11,12.42-48.61,14.9-74.19h58.71c-2.95,22.87-8.32,44.95-15.76,66.97-19.32,58.95-53.11,111.67-98.52,153.83-14.09,12.86-28.5,24.4-44.65,34.86l-.62-59.5c22.2-18.26,41.34-39.15,57.66-62.48l8.43-14.71Z"/>
            <path class="st0" d="M340.35,785.52l.09,57.56c-37.2-23.83-68.6-56.25-93.96-91.16l.04-127.6h-59.31c-2.81-13.98-4.35-27.98-5.47-42.5l166.03.04v42.45s-54.39,0-54.39,0l-.06,111.53c14.06,17.69,29.01,34.08,47.03,49.67Z"/>
            <g>
              <rect class="st0" x="331.01" y="363.96" width="38.35" height="341.6" transform="translate(-184.59 884.93) rotate(-90)"/>
              <rect class="st0" x="560.67" y="515.58" width="340.14" height="38.35"/>
            </g>
            <path class="st0" d="M680.48,582.36c-16.23,11.56-32.47,23.12-48.7,34.69h-28.63c10.62-11.56,21.23-23.12,31.85-34.69h45.48Z"/>
          </g>
          <g>
            <path class="st0" d="M235.73,488.49l-52.8-.08c1.81-12.41,3.3-23.58,6.87-35.06,9.14-29.4,20.21-57.62,34.09-85.16,20.51-40.66,50.42-80.9,86.65-110.42l61.19,130.88.15-172.7c15.86-8.04,31.62-14.84,48.94-20.19l-.2,292.64-51.96.17-71.42-151.55c-34.78,45.37-56.94,93.85-61.52,151.46Z"/>
            <path class="st0" d="M850.33,488.63c-9.29-35.1-21.26-68.61-37.03-101.03-7.93-15.78-16.06-30.49-26.48-45.37l-34.51,56.76-48.16-100.9-.1,190.34-46.18.09.04-292.68c18.29,4.66,34.97,11.8,50.97,20.42l47.95,91.74,27.57-40.29c24.29,23.98,44.4,51.13,61.24,80.94,17.86,31.8,31.58,65.07,42.17,99.93,3.95,13.48,7,26.3,9.06,39.95l-46.54.1Z"/>
            <path class="st0" d="M452.57,187.51l-.06,300.99,48.3-.03.12-125.06,78.99.1-.06,125h48.13l.04-300.4c-56.09-16.52-119.35-16.08-175.46-.6ZM579.91,320.47l-78.94.05.08-92.78c26.3-3.66,52.7-4.47,79.01-.04l-.15,92.77Z"/>
          </g>
        </g>
      </g>
    </g>
  </g>
</svg>